<svg xmlns="http://www.w3.org/2000/svg" viewBox="0 0 500 500">
  <defs>
    <clipPath id="a">
      <path fill="#676767" stroke="#263238" stroke-linecap="round" stroke-linejoin="round" d="M390.5 442.34a4.45 4.45 0 0 1-4.45-4.45v-27.35a4.44 4.44 0 0 1 4.13-4.42l1.09-2.78a1.35 1.35 0 0 1 1.26-.87h11.36a1.35 1.35 0 0 1 1.26.87l1.07 2.75h19a4.45 4.45 0 0 1 4.22 3"/>
    </clipPath>
    <clipPath id="b">
      <path fill="#676767" stroke="#263238" stroke-linecap="round" stroke-linejoin="round" d="M188.09 442.34a4.45 4.45 0 0 1-4.45-4.45v-27.35a4.43 4.43 0 0 1 4.13-4.42l1.08-2.78a1.38 1.38 0 0 1 1.27-.87h11.36a1.35 1.35 0 0 1 1.26.87l1.07 2.75h19a4.45 4.45 0 0 1 4.22 3"/>
    </clipPath>
    <clipPath id="c">
      <path fill="#676767" stroke="#263238" stroke-linecap="round" stroke-linejoin="round" d="M326.34 197.12s-9.38 3.27-15.67 8.72-16.32 13.59-16.32 13.59 5.65 13.57 12.21 19.1l14-5.6Z"/>
    </clipPath>
    <clipPath id="d">
      <path fill="#676767" stroke="#263238" stroke-linecap="round" stroke-linejoin="round" d="M320.53 232.93c5.45 13.34 14 30 14 30l3.77 18.59s14.16 10.79 30.4 6.26c19-5.3 22.11-17.33 22.11-17.33l-7.24-14.56c-2.48-14-5.72-47-16.87-54.59s-30.29-8.2-38-5.14c-6.87 2.72-10.68 4.79-12.55 7.3"/>
    </clipPath>
    <clipPath id="e">
      <path fill="#676767" stroke="#263238" stroke-linecap="round" stroke-linejoin="round" d="M361.35 209.26c-1.88 6.55-2.67 13.6.46 19.09 1.57 4.7 10.7 9.18 13.83 13.1 9.83-2.4 14-14.88 14-14.88S384 218.5 378.26 210s-17.08-11.65-17.08-11.65"/>
    </clipPath>
    <clipPath id="f">
      <path fill="#676767" stroke="#263238" stroke-linecap="round" stroke-linejoin="round" d="M368.85 297.83a4.45 4.45 0 0 1-4.79-4.08l-2.2-27.27a4.45 4.45 0 0 1 3.76-4.74l.86-2.85a1.36 1.36 0 0 1 1.19-1L379 257a1.35 1.35 0 0 1 1.33.76l1.29 2.65 19-1.52a4.46 4.46 0 0 1 4.45 2.67"/>
    </clipPath>
  </defs>
  <path fill="#fff" d="M67.93 167.09s-27.88 72 11.3 144.5 119.88 110.8 184.47 143.55 131.66 16.8 163.53-36.84-11.84-91.93-11.9-168.42 11.45-96.74-30-161.36-143.06-78.93-219.9-31-97.5 109.57-97.5 109.57Z" opacity=".7"/>
  <path fill="#676767" d="M66.52 95.24a98.56 98.56 0 0 1 11-11.2c28.48-24.66 69.15-29.36 104.31-18.3s65.26 36.15 89.62 65.39c11.13 13.37 21.71 28.08 36.61 36.25 19.21 10.54 41.46 8.33 62.23 11.43 75.52 11.28 100.13 117.19 48.53 172.31-20.34 21.72-48.73 34-75.65 43.17-37.28 12.74-76.28 21.09-115.39 19.53s-78.48-13.5-110-38.31C76.53 343 51.73 290.84 41.4 237.21c-5.23-27.13-7.08-55.37-1.9-82.52 4.17-21.82 13.18-42.94 27.02-59.45Z"/>
  <path fill="#fff" d="M370.29 178.81c-20.77-3.1-43-.89-62.23-11.43-14.9-8.17-25.48-22.88-36.61-36.25-24.36-29.24-54.45-54.33-89.62-65.39S106 59.38 77.51 84a98.56 98.56 0 0 0-11 11.2c-13.84 16.51-22.85 37.63-27 59.45-5.18 27.15-3.33 55.39 1.9 82.52C51.73 290.84 76.53 343 117.8 375.51c31.5 24.81 70.86 36.75 110 38.31s78.11-6.79 115.39-19.53c26.92-9.2 55.31-21.45 75.65-43.17 51.58-55.12 26.97-161.03-48.55-172.31Z" opacity=".7"/>
  <g stroke="#263238">
    <path fill="none" stroke-linecap="round" stroke-linejoin="round" d="M142.16 136.41h14.21M145.29 102.26a12.8 12.8 0 0 0-6.62 15.74h-.7a9.23 9.23 0 1 0 0 18.45M173.28 91.48a18.52 18.52 0 0 0-22.19 9.52h-.3M188.32 106.52a15.72 15.72 0 0 0-2.29.17 18.47 18.47 0 0 0-6.73-12M165.29 136.41h23a14.94 14.94 0 0 0 15-14.94M321.35 137.24h9.64M323.47 114.07a8.7 8.7 0 0 0-5 7.86 8.83 8.83 0 0 0 .47 2.82 3.59 3.59 0 0 0-.47 0 6.26 6.26 0 1 0 0 12.52M342.46 106.75a12.7 12.7 0 0 0-3.77-.58 12.54 12.54 0 0 0-11.28 7.07h-.2M352.67 117a11.46 11.46 0 0 0-1.56.11 12.46 12.46 0 0 0-4.56-8.12M337 137.24h15.63a10.14 10.14 0 0 0 10.14-10.14"/>
    <path fill="#fff" stroke-miterlimit="10" d="M285.06 70.91a23.74 23.74 0 0 0-3.6.27 29 29 0 0 0-54.9-8.88h-.47a20.12 20.12 0 0 0-19 26.68c-.36 0-.73-.06-1.1-.06a14.5 14.5 0 0 0 0 29h79.11a23.49 23.49 0 0 0 0-47Z"/>
    <path fill="none" stroke-linecap="round" stroke-linejoin="round" d="M251.67 94.71V77.9M261 83.62l-9.33-9.33-9.32 9.33M251.67 98.47v3.79M251.67 106.69v2.9"/>
  </g>
  <path fill="none" stroke="#263238" stroke-linecap="round" stroke-linejoin="round" d="M221.7 442.34h-19.81a7.33 7.33 0 0 1-7.42-8.8l7.67-48.08a10.73 10.73 0 0 1 10.23-8.8h60.76"/>
  <path fill="none" stroke="#263238" stroke-linecap="round" stroke-linejoin="round" d="M210.63 363.32h17.8a2.69 2.69 0 0 1 2.5 1.71l2.12 5.45h37.7a8.83 8.83 0 0 1 8.36 6l2.12.18a7.33 7.33 0 0 1 7.42 8.8L281 433.54a10.75 10.75 0 0 1-10.23 8.8h-37.59M193.07 400.32v-21a8.8 8.8 0 0 1 8.19-8.76l2.15-5.52a2.68 2.68 0 0 1 2.5-1.71M201.89 442.34a8.82 8.82 0 0 1-8.82-8.82V414"/>
  <path fill="#676767" d="M390.5 442.34a4.45 4.45 0 0 1-4.45-4.45v-27.35a4.44 4.44 0 0 1 4.13-4.42l1.09-2.78a1.35 1.35 0 0 1 1.26-.87h11.36a1.35 1.35 0 0 1 1.26.87l1.07 2.75h19a4.45 4.45 0 0 1 4.22 3"/>
  <g clip-path="url(#a)">
    <path fill-opacity=".7" d="M390.5 442.34a4.45 4.45 0 0 1-4.45-4.45v-27.35a4.44 4.44 0 0 1 4.13-4.42l1.09-2.78a1.35 1.35 0 0 1 1.26-.87h11.36a1.35 1.35 0 0 1 1.26.87l1.07 2.75h19a4.45 4.45 0 0 1 4.22 3" opacity=".3"/>
  </g>
  <path fill="none" stroke="#263238" stroke-linecap="round" stroke-linejoin="round" d="M390.5 442.34a4.45 4.45 0 0 1-4.45-4.45v-27.35a4.44 4.44 0 0 1 4.13-4.42l1.09-2.78a1.35 1.35 0 0 1 1.26-.87h11.36a1.35 1.35 0 0 1 1.26.87l1.07 2.75h19a4.45 4.45 0 0 1 4.22 3"/>
  <path fill="#676767" stroke="#263238" stroke-linecap="round" stroke-linejoin="round" d="M390.5 442.34h34.74a5.41 5.41 0 0 0 5.16-4.44l3.87-24.26a3.69 3.69 0 0 0-3.74-4.44h-34.74a5.42 5.42 0 0 0-5.16 4.44l-3.87 24.26a3.69 3.69 0 0 0 3.74 4.44Z"/>
  <path fill="#676767" d="M188.09 442.34a4.45 4.45 0 0 1-4.45-4.45v-27.35a4.43 4.43 0 0 1 4.13-4.42l1.08-2.78a1.38 1.38 0 0 1 1.27-.87h11.36a1.35 1.35 0 0 1 1.26.87l1.07 2.75h19a4.45 4.45 0 0 1 4.22 3"/>
  <g clip-path="url(#b)">
    <path fill-opacity=".7" d="M188.09 442.34a4.45 4.45 0 0 1-4.45-4.45v-27.35a4.43 4.43 0 0 1 4.13-4.42l1.08-2.78a1.38 1.38 0 0 1 1.27-.87h11.36a1.35 1.35 0 0 1 1.26.87l1.07 2.75h19a4.45 4.45 0 0 1 4.22 3" opacity=".3"/>
  </g>
  <path fill="none" stroke="#263238" stroke-linecap="round" stroke-linejoin="round" d="M188.09 442.34a4.45 4.45 0 0 1-4.45-4.45v-27.35a4.43 4.43 0 0 1 4.13-4.42l1.08-2.78a1.38 1.38 0 0 1 1.27-.87h11.36a1.35 1.35 0 0 1 1.26.87l1.07 2.75h19a4.45 4.45 0 0 1 4.22 3"/>
  <path fill="#676767" stroke="#263238" stroke-linecap="round" stroke-linejoin="round" d="M188.09 442.34h34.74a5.41 5.41 0 0 0 5.17-4.44l3.87-24.26a3.69 3.69 0 0 0-3.74-4.44h-34.76a5.43 5.43 0 0 0-5.16 4.44l-3.87 24.26a3.7 3.7 0 0 0 3.75 4.44ZM310.35 428.21s1.58 9.63 0 14.13h-31.87s-1.35-3.37 0-5.49 11.45-3.35 14.59-6.22a54.33 54.33 0 0 0 6.51-7.81Z"/>
  <path fill="#fff" stroke="#263238" stroke-linecap="round" stroke-linejoin="round" d="M277.88 440.65h32.89l.28 1.69h-33.17v-1.69z"/>
  <path fill="none" stroke="#263238" stroke-linecap="round" stroke-linejoin="round" d="M302.69 427s-3 .72-3.34.83-3.25 4.61-6.17 5.39-5.84.64-5.39 2.06M296.05 427.04l3.42 2.52M294.47 429.24l3.29 2.42M292.36 431.18l2.86 2.76M289.48 432.58l1.23 2.74"/>
  <path fill="#263238" d="M310.87 432.58a27 27 0 0 0-10.95 1.42c-5.73 2-7.7 3.76-7.56 4.29s.82 2.09.82 2.09h2.87s-1-1.83-.83-2.09 10-4.08 15.65-3.41Z"/>
  <path fill="#676767" stroke="#263238" stroke-linecap="round" stroke-linejoin="round" d="M364.38 442.34s1.22-4.69-.21-6.42c-2.58-3.12.31-5.74-2.28-6.83l-1.08 1.26c-.21-1.27.39-5.16-4.41-5.66-5.8-.62-5.91 3.61-6.23 5l.1-1.94c-2.48 0-1.19 2.47-4.95 6.51a10.74 10.74 0 0 0-2.71 8.08Z"/>
  <path fill="#263238" d="M385.4 263.94c2.68 1.56 9.59 16.28 5.56 45.49s-16.11 86.34-18.14 95.08-9.12 29.75-9.12 29.75-2.7-9.12-15.7-4.26a.66.66 0 0 1-.88-.75l2.87-14.89s.2-10.89 1.13-13.62c3.53-10.28 5.3-50 6.47-55.55s-1.13-21.49-1.13-21.49-16.31 39-16.84 42.86-10.48 19.78-10.48 19.78L327.38 401s-13.24 22.68-15.57 29.45L296.05 427l.44-11.21 4.24-1.46 7.42-25.49a227.11 227.11 0 0 1 8.64-26c3.51-8.86 13.46-43.19 13.46-43.19 3.09-3.36 6-21.94 6-21.94L341 274.3Z"/>
  <path fill="#fff" stroke="#263238" stroke-linecap="round" stroke-linejoin="round" d="m319.22 202-32.4 24.4L266 193.51l-7.8 1s15.53 42.42 24.12 46.65 41-19.23 41-19.23"/>
  <path fill="#676767" d="M326.34 197.12s-9.38 3.27-15.67 8.72-16.32 13.59-16.32 13.59 5.65 13.57 12.21 19.1l14-5.6Z"/>
  <g clip-path="url(#c)">
    <path fill="#fff" d="m306.47 238.46 5.12-4.55c-3.54-1.19-3.95-8.41-2-6.33a11.71 11.71 0 0 0 5.34 2.77 31.46 31.46 0 0 1-1.54-13.92 80.83 80.83 0 0 1 2.69 9.57c.65 3.2 3 5.35 4 6.49l6.21-35.37s-9.38 3.27-15.67 8.72-16.32 13.59-16.32 13.59 5.7 13.4 12.17 19.03Z" opacity=".4"/>
  </g>
  <path fill="none" stroke="#263238" stroke-linecap="round" stroke-linejoin="round" d="M326.34 197.12s-9.38 3.27-15.67 8.72-16.32 13.59-16.32 13.59 5.65 13.57 12.21 19.1l14-5.6Z"/>
  <path fill="#676767" d="M320.53 232.93c5.45 13.34 14 30 14 30l3.77 18.59s14.16 10.79 30.4 6.26c19-5.3 22.11-17.33 22.11-17.33l-7.24-14.56c-2.48-14-5.72-47-16.87-54.59s-30.29-8.2-38-5.14c-6.87 2.72-10.68 4.79-12.55 7.3"/>
  <g clip-path="url(#d)">
    <path fill="#fff" d="M379.87 275c-17.17 5.55-15.27 1.58-11.34-5.34 3.55-6.26 1-13.57 1.09-15.54-.77 1.52-3.69 6-7.31 7.69-4.66 2.25-3 3 1.08-4.81a54.4 54.4 0 0 0 5.14-16.62c-4.58-4.55-8.19-15.65-8.19-15.65l15-9.19c-2.21-6.43-5-11.69-8.69-14.17-11.16-7.55-30.29-8.2-38-5.14-6.87 2.72-10.68 4.79-12.55 7.3l4.42 29.45c5.45 13.34 14 30 14 30l3.77 18.59s14.16 10.79 30.4 6.26c19-5.3 22.11-17.33 22.11-17.33l-.27-.56a46.24 46.24 0 0 1-10.66 5.06Z" opacity=".4"/>
  </g>
  <path fill="none" stroke="#263238" stroke-linecap="round" stroke-linejoin="round" d="M320.53 232.93c5.45 13.34 14 30 14 30l3.77 18.59s14.16 10.79 30.4 6.26c19-5.3 22.11-17.33 22.11-17.33l-7.24-14.56c-2.48-14-5.72-47-16.87-54.59s-30.29-8.2-38-5.14c-6.87 2.72-10.68 4.79-12.55 7.3"/>
  <path fill="#fff" stroke="#263238" stroke-linecap="round" stroke-linejoin="round" d="M346.71 198.76s-4.18 7.76-11.61 7c-6.18-.61-6-5.59-6-5.59a5.89 5.89 0 0 0 1.86-2.83 5.11 5.11 0 0 0 .19-1.83c-.1-1.54-.88-3.42-3-5.57l-.1-.1a6.42 6.42 0 0 1-1.09-1.4c-3.41-6 8.49-12.79 17.47-7.8-.02.04-6.98 5.41 2.28 18.12Z"/>
  <path fill="#263238" d="M333.59 188.23s-.17 4.67-2.44 7.32c-.1-1.54-.88-3.42-3-5.57a5.75 5.75 0 0 1 5.44-1.75Z"/>
  <path fill="#fff" stroke="#263238" stroke-linecap="round" stroke-linejoin="round" d="M345.82 174.91c3.36-14.43-3.61-20.68-8.18-22.58-7.32-3-16.84 1.74-19 9.75s-.22 9.85-.32 13.13c-.07 2.3-1.49 3.43.08 9.2 1 3.81 2.74 9.92 9.26 8.83a21.8 21.8 0 0 0 5.75-1.88"/>
  <path fill="none" stroke="#263238" stroke-linecap="round" stroke-linejoin="round" d="M326.82 170.22s2.7-1 4.15 2.17M317.61 168.54s2.83-.61 4 1.44M322.37 174.07s-2.79 4.82-2.74 5.48c.14 2.06 2.76 1.13 2.76 1.13"/>
  <path fill="#263238" stroke="#263238" stroke-linecap="round" stroke-linejoin="round" d="M327.35 174.73c0 .67.3 1.22.67 1.22s.68-.55.68-1.22-.3-1.21-.68-1.21-.67.54-.67 1.21ZM319.63 174.07c0 .67.3 1.21.67 1.21s.67-.54.67-1.21-.3-1.22-.67-1.22-.67.55-.67 1.22Z"/>
  <path fill="none" stroke="#263238" stroke-linecap="round" stroke-linejoin="round" d="M327.35 182.66a8.86 8.86 0 0 1-5.71.92"/>
  <path fill="none" stroke="#263238" stroke-linecap="round" stroke-linejoin="round" d="M326.82 183.21a2.78 2.78 0 0 1-2.32 2.34 1.85 1.85 0 0 1-2.11-1.79"/>
  <path fill="#263238" d="M345.84 156.49s-.44-7.73-14.84-7.49-18.65 11.43-11.34 14.46 11.84 1.7 11.84 1.7a12.39 12.39 0 0 1-5.13-3.52 36.75 36.75 0 0 0 9.34 3.81s-1.64 2.15 0 5.75.84 5.14.84 5.14 6.61 1.87 5.51 9c0 0 6.07-.12 8.53-14.1s-4.75-14.75-4.75-14.75Z"/>
  <path fill="#fff" stroke="#263238" stroke-linecap="round" stroke-linejoin="round" d="M337.64 177.44s2.64-4.93 5.41-3.73.84 7.09-1.56 9-3.85 0-3.85 0"/>
  <path fill="none" stroke="#263238" stroke-linecap="round" stroke-linejoin="round" d="M313.42 216.43c1.61 6.49 2.45 11.6 7.11 16.5M312.41 211.27c.13 1 .31 2 .52 3"/>
  <path fill="#fff" stroke="#263238" stroke-linecap="round" stroke-linejoin="round" d="M368.53 228.87s19.3 20.86 24 20.08 7.21-8.48 6.17-10.61S380.31 216 380.31 216Z"/>
  <path fill="#676767" d="M361.35 209.26c-1.88 6.55-2.67 13.6.46 19.09 1.57 4.7 10.7 9.18 13.83 13.1 9.83-2.4 14-14.88 14-14.88S384 218.5 378.26 210s-17.08-11.65-17.08-11.65"/>
  <g clip-path="url(#e)">
    <path fill="#fff" d="M361.35 209.26c-1.88 6.55-2.67 13.6.46 19.09 1.57 4.7 10.7 9.18 13.83 13.1 9.83-2.4 14-14.88 14-14.88S384 218.5 378.26 210s-17.08-11.65-17.08-11.65" opacity=".4"/>
  </g>
  <path fill="none" stroke="#263238" stroke-linecap="round" stroke-linejoin="round" d="M361.35 209.26c-1.88 6.55-2.67 13.6.46 19.09 1.57 4.7 10.7 9.18 13.83 13.1 9.83-2.4 14-14.88 14-14.88S384 218.5 378.26 210s-17.08-11.65-17.08-11.65"/>
  <path fill="#fff" stroke="#263238" stroke-linecap="round" stroke-linejoin="round" d="M266.21 193.88S263 186.35 261 184s-4-4-4.56-4.08c-1.39-.16-5.92 2.35-5.92 2.35s0 1.42 2.45 1.21c0 0-3.54 2.21-3.71 3.94s2 4.18 2.46 5.13a.83.83 0 0 0 1.28.45s3.82 5.2 7.51 5.56"/>
  <path fill="none" stroke="#263238" stroke-linecap="round" stroke-linejoin="round" d="M253 193a2.22 2.22 0 0 0 .5-1.42s1.53 0 1.61-1.34c0 0 2.25.14 1.31-2.72"/>
  <path fill="none" stroke="#263238" stroke-linecap="round" stroke-linejoin="round" d="M255.1 190.21s-2.55-2.74-2.7-3.8M253.49 191.55s-2.8-2.5-2.65-3.63M256 181.8a4 4 0 0 1-2.78 1.47"/>
  <path fill="none" stroke="#263238" stroke-linecap="round" stroke-linejoin="round" d="M255.41 182.42a9.1 9.1 0 0 1 1.3 1.25M362.31 207.19a8 8 0 0 1 2.43-2.6"/>
  <path fill="#fff" stroke="#263238" stroke-linecap="round" stroke-linejoin="round" d="M342.59 440.65h22.27l-.48 1.69h-21.77l-.02-1.69z"/>
  <path fill="none" stroke="#263238" stroke-linecap="round" stroke-linejoin="round" d="M349.74 434.06s7.31-2.42 10.84.61M349.74 432.46s6.43-2 10.84.69M350.12 430.89s6.05-2.28 10.46.84"/>
  <path fill="#263238" d="m345.32 434.26.73.71a.6.6 0 0 1 .08.75 8.94 8.94 0 0 0-1.49 4.93h-1.07a15.54 15.54 0 0 1 1.54-4.91l-.55-.55Z"/>
  <path fill="none" stroke="#263238" stroke-linecap="round" stroke-linejoin="round" d="M370.79 252.2c-1.26 1.76-18.38 22.43-26.38 21.31M326.34 234.53s9.56 14.74 24.73 14.44"/>
  <g fill="none" stroke="#fff" stroke-linecap="round" stroke-linejoin="round" opacity=".2">
    <path d="M351.07 307.39c.88.2 17.69 6.33 21.05 12.46M355.16 316.29c-.84 1.19-8 23.54-11 29.67s-13.34 33.63-15.71 35.21c0 0-3.17 16-5.15 18.59s-12.21 23.06-12.21 23.06M299.58 422.82l12.41 2.66M350.12 424.15s9.93-.89 13.3 2.89M361.6 318.86c.83 4.75 13.29 31.06 16.26 28.09"/>
    <path d="M356.77 321.24s-1.46-6.53-.08-9.5c.53-1.13-10.68 2.77-14.44 1.88M355.16 288.91s2 5.62 2.44 7.4-3.6 8.69-2.44 10.09M382.41 283.65s2.77 4.24 2.77 7.37 3.75 4.5 3.75 4.5"/>
    <path d="M388.31 279a72.5 72.5 0 0 1 .62 28.37c-2.77 15.63-7.31 47.47-9.09 55.58s-5.94 26.31-5.94 28.88-4.17 17.21-4.17 17.21M370.74 386.91c-.6 0-11.67 10.68-14.44 10.87M322.27 380.38c-.59.2-9.89 4.75-10.28 3.36"/>
  </g>
  <path fill="#676767" d="M368.85 297.83a4.45 4.45 0 0 1-4.79-4.08l-2.2-27.27a4.45 4.45 0 0 1 3.76-4.74l.86-2.85a1.36 1.36 0 0 1 1.19-1L379 257a1.35 1.35 0 0 1 1.33.76l1.29 2.65 19-1.52a4.46 4.46 0 0 1 4.45 2.67"/>
  <g clip-path="url(#f)">
    <path fill-opacity=".7" d="M368.85 297.83a4.45 4.45 0 0 1-4.79-4.08l-2.2-27.27a4.45 4.45 0 0 1 3.76-4.74l.86-2.85a1.36 1.36 0 0 1 1.19-1L379 257a1.35 1.35 0 0 1 1.33.76l1.29 2.65 19-1.52a4.46 4.46 0 0 1 4.45 2.67" opacity=".3"/>
  </g>
  <path fill="none" stroke="#263238" stroke-linecap="round" stroke-linejoin="round" d="M368.85 297.83a4.45 4.45 0 0 1-4.79-4.08l-2.2-27.27a4.45 4.45 0 0 1 3.76-4.74l.86-2.85a1.36 1.36 0 0 1 1.19-1L379 257a1.35 1.35 0 0 1 1.33.76l1.29 2.65 19-1.52a4.46 4.46 0 0 1 4.45 2.67"/>
  <path fill="#676767" stroke="#263238" stroke-linecap="round" stroke-linejoin="round" d="m368.85 297.83 34.63-2.83a5.43 5.43 0 0 0 4.79-4.84l1.91-24.5a3.7 3.7 0 0 0-4.09-4.12l-34.63 2.79a5.42 5.42 0 0 0-4.79 4.84l-1.91 24.49a3.7 3.7 0 0 0 4.09 4.17Z"/>
  <path fill="#fff" stroke="#263238" stroke-linecap="round" stroke-linejoin="round" d="M395.64 234.35c3.58 3.44 5.43 6.13 5.17 17.31S398.52 279 397.2 290l-9.51 1.45s1.49-17.2 0-28.52c-1.62-12.36-.34-19.28 1.15-20.17"/>
  <path fill="#fff" stroke="#263238" stroke-linecap="round" stroke-linejoin="round" d="M388.23 281.87c-.2 3.21-6.05 4.19-6.48 6.2-.14.66-2.16 5.08-2.16 5.08a14.42 14.42 0 0 0 .27 3.79c.5 1.72 2.05.72 2.05.72l.5 1.22c.79 2 2.27.15 4.79 1.39s3.74-.4 4.71 0 4.14-.59 4.74-1.78-.35-6.45.55-8.54.92-6.32.92-8.08"/>
  <path fill="#fff" stroke="#263238" stroke-linecap="round" stroke-linejoin="round" d="M381.91 297.66s0-3.23 2.08-4.51"/>
  <path fill="#999" stroke="#263238" stroke-linecap="round" stroke-linejoin="round" d="M163.3 181.45h88.95v18.38H163.3zM163.3 205.34h88.95v18.38H163.3zM163.3 229.23h88.95v18.38H163.3zM163.3 253.12h88.95v18.38H163.3zM163.3 277.01h88.95v18.38H163.3z"/>
  <rect width="75.24" height="22.5" x="179.75" y="179.38" fill="#bfbfbf" stroke="#263238" stroke-linecap="round" stroke-linejoin="round" rx="1.98"/>
  <rect width="75.24" height="22.5" x="179.75" y="203.27" fill="#bfbfbf" stroke="#263238" stroke-linecap="round" stroke-linejoin="round" rx="1.98"/>
  <rect width="75.24" height="22.5" x="179.75" y="227.17" fill="#bfbfbf" stroke="#263238" stroke-linecap="round" stroke-linejoin="round" rx="1.98"/>
  <rect width="75.24" height="22.5" x="179.75" y="251.06" fill="#bfbfbf" stroke="#263238" stroke-linecap="round" stroke-linejoin="round" rx="1.98"/>
  <rect width="75.24" height="22.5" x="179.75" y="274.95" fill="#bfbfbf" stroke="#263238" stroke-linecap="round" stroke-linejoin="round" rx="1.98"/>
  <path fill="#fff" stroke="#263238" stroke-linecap="round" stroke-linejoin="round" d="M262.08 194.16s-5.16-2.31-5-6a6.74 6.74 0 0 0-.7-2.71s-5-1.19-4.3-3.18l6.92.73a11.9 11.9 0 0 1 4.95 6"/>
  <path fill="#757575" stroke="#263238" stroke-linecap="round" stroke-linejoin="round" d="M68.5 178.94h104.88v263.4H68.5z"/>
  <rect width="75.24" height="22.5" x="63.88" y="179.39" fill="#999" stroke="#263238" stroke-linecap="round" stroke-linejoin="round" rx="1.98"/>
  <rect width="75.24" height="22.5" x="102.75" y="179.39" fill="#bfbfbf" stroke="#263238" stroke-linecap="round" stroke-linejoin="round" rx="1.98"/>
  <path fill="#263238" d="M104.74 198.53v-15.8a1.36 1.36 0 0 1 1.36-1.36h68.53a1.36 1.36 0 0 1 1.37 1.36v15.78a1.36 1.36 0 0 1-1.36 1.36H106.1a1.36 1.36 0 0 1-1.36-1.34Z"/>
  <rect width="40.22" height="6.46" x="109.18" y="192.6" fill="#676767" stroke="#263238" stroke-linecap="round" stroke-linejoin="round" rx="1.32"/>
  <rect width="40.22" height="6.46" x="117.05" y="185.48" fill="#676767" stroke="#263238" stroke-linecap="round" stroke-linejoin="round" rx="1.32"/>
  <rect width="75.24" height="22.5" x="63.88" y="298.85" fill="#999" stroke="#263238" stroke-linecap="round" stroke-linejoin="round" rx="1.98"/>
  <rect width="75.24" height="22.5" x="102.75" y="298.85" fill="#bfbfbf" stroke="#263238" stroke-linecap="round" stroke-linejoin="round" rx="1.98"/>
  <path fill="#757575" stroke="#263238" stroke-linecap="round" stroke-linejoin="round" d="M112.61 308.31h44.66v3.57h-44.66z"/>
  <path fill="#676767" stroke="#263238" stroke-linecap="round" stroke-linejoin="round" d="M165.11 310.1a1.81 1.81 0 1 1-1.81-1.81 1.81 1.81 0 0 1 1.81 1.81Z"/>
  <path fill="#757575" stroke="#263238" stroke-linecap="round" stroke-linejoin="round" d="M171.55 310.1a1.81 1.81 0 1 1-1.81-1.81 1.81 1.81 0 0 1 1.81 1.81Z"/>
  <path fill="#676767" d="M114.24 309.5h26.13v1.19h-26.13z"/>
  <rect width="75.24" height="22.5" x="63.88" y="322.74" fill="#999" stroke="#263238" stroke-linecap="round" stroke-linejoin="round" rx="1.98"/>
  <rect width="75.24" height="22.5" x="102.75" y="322.74" fill="#bfbfbf" stroke="#263238" stroke-linecap="round" stroke-linejoin="round" rx="1.98"/>
  <path fill="#757575" stroke="#263238" stroke-linecap="round" stroke-linejoin="round" d="M112.61 332.2h44.66v3.57h-44.66z"/>
  <circle cx="163.3" cy="333.99" r="1.81" fill="#676767" stroke="#263238" stroke-linecap="round" stroke-linejoin="round"/>
  <path fill="#757575" stroke="#263238" stroke-linecap="round" stroke-linejoin="round" d="M171.55 334a1.81 1.81 0 1 1-1.81-1.81 1.8 1.8 0 0 1 1.81 1.81Z"/>
  <path fill="#676767" d="M114.24 333.4h26.13v1.18h-26.13z"/>
  <rect width="75.24" height="22.5" x="63.88" y="346.63" fill="#999" stroke="#263238" stroke-linecap="round" stroke-linejoin="round" rx="1.98"/>
  <rect width="75.24" height="22.5" x="102.75" y="346.63" fill="#bfbfbf" stroke="#263238" stroke-linecap="round" stroke-linejoin="round" rx="1.98"/>
  <path fill="#757575" stroke="#263238" stroke-linecap="round" stroke-linejoin="round" d="M112.61 356.09h44.66v3.57h-44.66z"/>
  <circle cx="163.3" cy="357.88" r="1.81" fill="#676767" stroke="#263238" stroke-linecap="round" stroke-linejoin="round"/>
  <path fill="#757575" stroke="#263238" stroke-linecap="round" stroke-linejoin="round" d="M171.55 357.88a1.81 1.81 0 1 1-1.81-1.8 1.81 1.81 0 0 1 1.81 1.8Z"/>
  <path fill="#676767" d="M114.24 357.29h26.13v1.18h-26.13z"/>
  <rect width="75.24" height="22.5" x="63.88" y="370.52" fill="#999" stroke="#263238" stroke-linecap="round" stroke-linejoin="round" rx="1.98"/>
  <rect width="75.24" height="22.5" x="102.75" y="370.52" fill="#bfbfbf" stroke="#263238" stroke-linecap="round" stroke-linejoin="round" rx="1.98"/>
  <path fill="#757575" stroke="#263238" stroke-linecap="round" stroke-linejoin="round" d="M112.61 379.98h44.66v3.57h-44.66z"/>
  <path fill="#676767" stroke="#263238" stroke-linecap="round" stroke-linejoin="round" d="M165.11 381.77a1.81 1.81 0 1 1-1.81-1.8 1.81 1.81 0 0 1 1.81 1.8Z"/>
  <path fill="#757575" stroke="#263238" stroke-linecap="round" stroke-linejoin="round" d="M171.55 381.77a1.81 1.81 0 1 1-1.81-1.8 1.81 1.81 0 0 1 1.81 1.8Z"/>
  <path fill="#676767" d="M114.24 381.18h26.13v1.19h-26.13z"/>
  <rect width="75.24" height="22.5" x="63.88" y="394.41" fill="#999" stroke="#263238" stroke-linecap="round" stroke-linejoin="round" rx="1.98"/>
  <rect width="75.24" height="22.5" x="102.75" y="394.41" fill="#bfbfbf" stroke="#263238" stroke-linecap="round" stroke-linejoin="round" rx="1.98"/>
  <path fill="#757575" stroke="#263238" stroke-linecap="round" stroke-linejoin="round" d="M112.61 403.88h44.66v3.57h-44.66z"/>
  <circle cx="163.3" cy="405.66" r="1.81" fill="#676767" stroke="#263238" stroke-linecap="round" stroke-linejoin="round"/>
  <path fill="#757575" stroke="#263238" stroke-linecap="round" stroke-linejoin="round" d="M171.55 405.66a1.81 1.81 0 1 1-1.81-1.8 1.81 1.81 0 0 1 1.81 1.8Z"/>
  <path fill="#676767" d="M114.24 405.07h26.13v1.18h-26.13z"/>
  <rect width="75.24" height="22.5" x="63.88" y="418.3" fill="#999" stroke="#263238" stroke-linecap="round" stroke-linejoin="round" rx="1.98"/>
  <rect width="75.24" height="22.5" x="102.75" y="418.3" fill="#bfbfbf" stroke="#263238" stroke-linecap="round" stroke-linejoin="round" rx="1.98"/>
  <path fill="#757575" stroke="#263238" stroke-linecap="round" stroke-linejoin="round" d="M112.61 427.77h44.66v3.57h-44.66z"/>
  <circle cx="163.3" cy="429.56" r="1.81" fill="#676767" stroke="#263238" stroke-linecap="round" stroke-linejoin="round"/>
  <path fill="#757575" stroke="#263238" stroke-linecap="round" stroke-linejoin="round" d="M171.55 429.56a1.81 1.81 0 1 1-1.81-1.81 1.81 1.81 0 0 1 1.81 1.81Z"/>
  <path fill="#676767" d="M114.24 428.96h26.13v1.18h-26.13z"/>
  <rect width="75.24" height="22.5" x="63.88" y="274.95" fill="#999" stroke="#263238" stroke-linecap="round" stroke-linejoin="round" rx="1.98"/>
  <rect width="75.24" height="22.5" x="102.75" y="274.95" fill="#bfbfbf" stroke="#263238" stroke-linecap="round" stroke-linejoin="round" rx="1.98"/>
  <path fill="#263238" d="M104.74 294.09V278.3a1.36 1.36 0 0 1 1.36-1.36h68.53a1.37 1.37 0 0 1 1.37 1.37v15.78a1.36 1.36 0 0 1-1.36 1.36H106.1a1.36 1.36 0 0 1-1.36-1.36Z"/>
  <rect width="40.22" height="6.46" x="109.18" y="288.16" fill="#676767" stroke="#263238" stroke-linecap="round" stroke-linejoin="round" rx="1.32"/>
  <rect width="20.22" height="6.46" x="151.39" y="288.16" fill="#676767" stroke="#263238" stroke-linecap="round" stroke-linejoin="round" rx="1.32"/>
  <rect width="20.22" height="6.46" x="113.51" y="281.65" fill="#676767" stroke="#263238" stroke-linecap="round" stroke-linejoin="round" rx="1.32"/>
  <rect width="75.24" height="22.5" x="63.88" y="251.06" fill="#999" stroke="#263238" stroke-linecap="round" stroke-linejoin="round" rx="1.98"/>
  <rect width="75.24" height="22.5" x="102.75" y="251.06" fill="#bfbfbf" stroke="#263238" stroke-linecap="round" stroke-linejoin="round" rx="1.98"/>
  <path fill="#263238" d="M104.74 270.2v-15.79a1.36 1.36 0 0 1 1.36-1.36h68.53a1.37 1.37 0 0 1 1.37 1.37v15.77a1.36 1.36 0 0 1-1.36 1.37H106.1a1.36 1.36 0 0 1-1.36-1.36Z"/>
  <rect width="20.22" height="6.46" x="129.79" y="264.27" fill="#676767" stroke="#263238" stroke-linecap="round" stroke-linejoin="round" rx="1.32"/>
  <rect width="20.22" height="6.46" x="151.39" y="264.27" fill="#676767" stroke="#263238" stroke-linecap="round" stroke-linejoin="round" rx="1.32"/>
  <rect width="20.22" height="6.46" x="108.57" y="264.27" fill="#676767" stroke="#263238" stroke-linecap="round" stroke-linejoin="round" rx="1.32"/>
  <rect width="20.22" height="6.46" x="124.39" y="257.35" fill="#676767" stroke="#263238" stroke-linecap="round" stroke-linejoin="round" rx="1.32"/>
  <rect width="75.24" height="22.5" x="63.88" y="227.17" fill="#999" stroke="#263238" stroke-linecap="round" stroke-linejoin="round" rx="1.98"/>
  <rect width="75.24" height="22.5" x="102.75" y="227.17" fill="#bfbfbf" stroke="#263238" stroke-linecap="round" stroke-linejoin="round" rx="1.98"/>
  <path fill="#263238" d="M104.74 246.31v-15.79a1.36 1.36 0 0 1 1.36-1.37h68.53a1.37 1.37 0 0 1 1.37 1.37v15.77a1.36 1.36 0 0 1-1.36 1.37H106.1a1.36 1.36 0 0 1-1.36-1.35Z"/>
  <rect width="40.22" height="6.46" x="122.18" y="240.38" fill="#676767" stroke="#263238" stroke-linecap="round" stroke-linejoin="round" rx="1.32"/>
  <path fill="#676767" stroke="#263238" stroke-linecap="round" stroke-linejoin="round" d="M156 239.72h-37.63a1.32 1.32 0 0 1-1.32-1.32v.18a1.32 1.32 0 0 1 1.32-1.32H156a1.32 1.32 0 0 1 1.31 1.32v-.18a1.32 1.32 0 0 1-1.31 1.32Z"/>
  <rect width="75.24" height="22.5" x="63.88" y="203.28" fill="#999" stroke="#263238" stroke-linecap="round" stroke-linejoin="round" rx="1.98"/>
  <rect width="75.24" height="22.5" x="102.75" y="203.28" fill="#bfbfbf" stroke="#263238" stroke-linecap="round" stroke-linejoin="round" rx="1.98"/>
  <path fill="#263238" d="M104.74 222.42v-15.79a1.36 1.36 0 0 1 1.36-1.37h68.53a1.36 1.36 0 0 1 1.37 1.36v15.78a1.36 1.36 0 0 1-1.36 1.36H106.1a1.36 1.36 0 0 1-1.36-1.34Z"/>
  <rect width="40.22" height="6.46" x="129.18" y="216.49" fill="#676767" stroke="#263238" stroke-linecap="round" stroke-linejoin="round" rx="1.32"/>
  <rect width="20.22" height="6.46" x="137.05" y="209.37" fill="#676767" stroke="#263238" stroke-linecap="round" stroke-linejoin="round" rx="1.32"/>
  <path fill="none" stroke="#263238" stroke-linecap="round" stroke-linejoin="round" d="M68.16 193.65v5.41M69.88 193.65v5.41M71.59 193.65v5.41M73.31 193.65v5.41M75.02 193.65v5.41M68.16 432.65v5.41M69.88 432.65v5.41M71.59 432.65v5.41M73.31 432.65v5.41M75.02 432.65v5.41M68.16 408.75v5.41M69.88 408.75v5.41M71.59 408.75v5.41M73.31 408.75v5.41M75.02 408.75v5.41M68.16 384.85v5.41M69.88 384.85v5.41M71.59 384.85v5.41M73.31 384.85v5.41M75.02 384.85v5.41M68.16 360.95v5.41M69.88 360.95v5.41M71.59 360.95v5.41M73.31 360.95v5.41M75.02 360.95v5.41M68.16 337.05v5.41M69.88 337.05v5.41M71.59 337.05v5.41M73.31 337.05v5.41M75.02 337.05v5.41M68.16 313.15v5.41M69.88 313.15v5.41M71.59 313.15v5.41M73.31 313.15v5.41M75.02 313.15v5.41M68.16 289.25v5.41M69.88 289.25v5.41M71.59 289.25v5.41M73.31 289.25v5.41M75.02 289.25v5.41M68.16 265.35v5.41M69.88 265.35v5.41M71.59 265.35v5.41M73.31 265.35v5.41M75.02 265.35v5.41M68.16 241.45v5.41M69.88 241.45v5.41M71.59 241.45v5.41M73.31 241.45v5.41M75.02 241.45v5.41M68.16 217.55v5.41M69.88 217.55v5.41M71.59 217.55v5.41M73.31 217.55v5.41M75.02 217.55v5.41"/>
</svg>
