<svg xmlns="http://www.w3.org/2000/svg" viewBox="0 0 500 500">
  <path fill="#aaa" d="M464.86 297.93c-14.73 39.43-44.81 82.11-87.14 94.75-64 19.1-71.6 70.65-186.16 65.87a231.55 231.55 0 0 1-49.56-7.26 194.41 194.41 0 0 1-23.29-7.75C51.8 416.43 16.89 356.77 14 294.35c-3.82-82.11 53.46-121.24 90.69-144.15s82.1-111.71 194.75-107.89a224.06 224.06 0 0 1 50.92 7.44c37.91 10.26 76.44 33 98.84 66.12q2.52 3.73 4.82 7.64c29.98 50.85 30.91 120.66 10.84 174.42Z"/>
  <path fill="#fff" d="M464.86 297.93c-14.73 39.43-44.81 82.11-87.14 94.75-64 19.1-71.6 70.65-186.16 65.87a231.55 231.55 0 0 1-49.56-7.26 194.41 194.41 0 0 1-23.29-7.75C51.8 416.43 16.89 356.77 14 294.35c-3.82-82.11 53.46-121.24 90.69-144.15s82.1-111.71 194.75-107.89a224.06 224.06 0 0 1 50.92 7.44c37.91 10.26 76.44 33 98.84 66.12q2.52 3.73 4.82 7.64c29.98 50.85 30.91 120.66 10.84 174.42Z" opacity=".7"/>
  <g fill="none" stroke="#000" stroke-linecap="round" stroke-miterlimit="10" opacity=".2">
    <path d="M91 42h110.48v310.86H91z"/>
    <path d="M91.59 51.45h109.67l-2.58-8.54M91.59 61.8h109.67l-2.58-8.54M91.59 72.15h109.67l-2.58-8.55M91.59 82.5h109.67l-2.58-8.55M91.59 92.85h109.67l-2.58-8.55M91.59 103.2h109.67l-2.58-8.55M91.59 113.55h109.67l-2.58-8.55M91.59 123.9h109.67l-2.58-8.55M91.59 134.25h109.67l-2.58-8.55M91.59 144.6h109.67l-2.58-8.55M91.59 154.95h109.67l-2.58-8.55M91.59 165.3h109.67l-2.58-8.55M91.59 175.65h109.67l-2.58-8.55M91.59 186h109.67l-2.58-8.55M91.59 196.34h109.67l-2.58-8.54M91.59 206.69h109.67l-2.58-8.54M91.59 217.04h109.67l-2.58-8.54M91.59 227.39h109.67l-2.58-8.54M91.59 237.74h109.67l-2.58-8.54M91.59 248.09h109.67l-2.58-8.54M91.59 258.44h109.67l-2.58-8.54M91.59 268.79h109.67l-2.58-8.54M91.59 279.14h109.67l-2.58-8.55M91.59 289.49h109.67l-2.58-8.55M91.59 299.84h109.67l-2.58-8.55M91.59 310.19h109.67l-2.58-8.55M91.59 320.54h109.67l-2.58-8.55M91.59 330.89h109.67l-2.58-8.55M91.59 341.24h109.67l-2.58-8.55"/>
  </g>
  <g fill="none" stroke="#000" stroke-linecap="round" stroke-miterlimit="10" opacity=".2">
    <path d="M209.8 42h110.48v310.86H209.8z"/>
    <path d="M210.39 51.45h109.67l-2.57-8.54M210.39 61.8h109.67l-2.57-8.54M210.39 72.15h109.67l-2.57-8.55M210.39 82.5h109.67l-2.57-8.55M210.39 92.85h109.67l-2.57-8.55M210.39 103.2h109.67l-2.57-8.55M210.39 113.55h109.67l-2.57-8.55M210.39 123.9h109.67l-2.57-8.55M210.39 134.25h109.67l-2.57-8.55M210.39 144.6h109.67l-2.57-8.55M210.39 154.95h109.67l-2.57-8.55M210.39 165.3h109.67l-2.57-8.55M210.39 175.65h109.67l-2.57-8.55M210.39 186h109.67l-2.57-8.55M210.39 196.34h109.67l-2.57-8.54M210.39 206.69h109.67l-2.57-8.54M210.39 217.04h109.67l-2.57-8.54M210.39 227.39h109.67l-2.57-8.54M210.39 237.74h109.67l-2.57-8.54M210.39 248.09h109.67l-2.57-8.54M210.39 258.44h109.67l-2.57-8.54M210.39 268.79h109.67l-2.57-8.54M210.39 279.14h109.67l-2.57-8.55M210.39 289.49h109.67l-2.57-8.55M210.39 299.84h109.67l-2.57-8.55M210.39 310.19h109.67l-2.57-8.55M210.39 320.54h109.67l-2.57-8.55M210.39 330.89h109.67l-2.57-8.55M210.39 341.24h109.67l-2.57-8.55"/>
  </g>
  <g fill="none" stroke="#000" stroke-linecap="round" stroke-miterlimit="10">
    <g opacity=".3">
      <path d="M23.67 61.67h18v18h-18zM23.67 92.33h18v18h-18zM48.33 71h27.34M48.33 101h27.34"/>
      <path d="m27.67 67 2.66 5.33 12-18"/>
    </g>
    <g opacity=".3">
      <path d="M289.67 420.67h18v18h-18zM289.67 451.33h18v18h-18zM314.33 430h27.34M314.33 460h27.34"/>
      <path d="m293.67 426 2.66 5.33 12-18"/>
    </g>
    <g opacity=".3">
      <path d="M350 52h18v18h-18zM350 82.67h18v18h-18zM374.67 61.33H402M374.67 91.33H402"/>
      <path d="m354 57.33 2.67 5.34 12-18"/>
    </g>
  </g>
  <ellipse cx="79.51" cy="351.2" fill="#aaa" stroke="#263238" stroke-miterlimit="10" rx="11.65" ry="30.55"/>
  <ellipse cx="106.67" cy="329.49" fill="#aaa" stroke="#263238" stroke-miterlimit="10" rx="21.77" ry="9.48" transform="rotate(-72.37 106.686 329.5)"/>
  <path fill="#aaa" stroke="#263238" stroke-miterlimit="10" d="M30.24 401.46c-11.86-2-20.76-7.82-19.88-13s11.19-7.72 23-5.71 20.76 7.82 19.89 13-11.16 7.71-23.01 5.71Z"/>
  <ellipse cx="118.46" cy="364.94" fill="#aaa" stroke="#263238" stroke-miterlimit="10" rx="25.25" ry="11.65" transform="rotate(-44.76 118.478 364.958)"/>
  <path fill="#aaa" stroke="#263238" stroke-miterlimit="10" d="M58.43 346.28C68 360.17 70.86 374.82 64.81 379s-18.73-3.71-28.3-17.6-12.43-28.53-6.38-32.71 18.73 3.7 28.3 17.59Z"/>
  <path fill="none" stroke="#263238" stroke-linecap="round" stroke-miterlimit="10" d="m80.33 380.22.9 42M79.24 339.84l1.09 40.38M79.32 333.25l-.08 3.09M64.76 377a117.35 117.35 0 0 1 11.51 44.08M44.76 346.4a138 138 0 0 1 20 30.6M38.46 339.74s1.21 1.1 3.19 3.21M101.26 381.32a137.61 137.61 0 0 0-18.88 37.47M114.66 365.92a109.65 109.65 0 0 0-13.4 15.4M129 355a60.51 60.51 0 0 0-10.2 7.23"/>
  <path fill="none" stroke="#263238" stroke-linecap="round" stroke-miterlimit="10" d="M100.77 347.4c-6.46 20.3-15.12 50.31-19.16 76.35M104.7 335.35c-1.15 3.43-2.49 7.49-3.93 12M108.72 323.7s-1.12 3.11-2.94 8.44M52.69 392.94c8.06 3.05 15.93 8.95 19.76 20.12M37.8 389.91a50.55 50.55 0 0 1 14.89 3M28.15 390.15s1.44-.21 3.8-.3"/>
  <path fill="#aaa" stroke="#263238" stroke-miterlimit="10" d="M131.69 401.46c11.86-2 20.76-7.82 19.88-13s-11.19-7.72-23-5.71-20.76 7.82-19.89 13 11.16 7.71 23.01 5.71Z"/>
  <path fill="none" stroke="#263238" stroke-linecap="round" stroke-miterlimit="10" d="M109.5 392.84c-8.15 3-16.15 8.93-20 20.22M125.38 389.85a51.62 51.62 0 0 0-15.88 3M133.78 390.15s-.94-.14-2.57-.24"/>
  <path fill="#263238" d="M109.33 448.75a56.62 56.62 0 0 0 5.5-24 49.55 49.55 0 0 0-2.2-14.71h-62a49.55 49.55 0 0 0-2.2 14.71 56.48 56.48 0 0 0 5.51 24Z"/>
  <path fill="#7a7a7a" d="M49 416.88c-.18 1.13-.31 2.27-.41 3.43h66.05c-.1-1.16-.24-2.3-.42-3.43ZM113.93 434.44c.21-1.14.39-2.28.53-3.43H48.77c.13 1.15.31 2.29.52 3.43Z"/>
  <path fill="#8c8c8c" d="M56.41 424.9a2.68 2.68 0 1 1-2.67-2.68 2.68 2.68 0 0 1 2.67 2.68ZM69.77 424.9a2.67 2.67 0 1 1-2.67-2.68 2.67 2.67 0 0 1 2.67 2.68ZM83.14 424.9a2.68 2.68 0 1 1-2.67-2.68 2.68 2.68 0 0 1 2.67 2.68ZM96.5 424.9a2.67 2.67 0 1 1-2.67-2.68 2.67 2.67 0 0 1 2.67 2.68ZM109.87 424.9a2.68 2.68 0 1 1-2.67-2.68 2.68 2.68 0 0 1 2.67 2.68Z"/>
  <path fill="#263238" d="M234.16 84.46h234.28v331.28H234.16z"/>
  <path fill="#fff" stroke="#263238" stroke-linecap="round" stroke-linejoin="round" d="M228.37 78.67h234.28v331.28H228.37z"/>
  <path fill="#fff" stroke="#263238" stroke-linecap="round" stroke-linejoin="round" d="M238.24 111.55h212.91v60.01H238.24zM238.24 99.22h69.87v12.33h-69.87zM381.27 99.22h69.87v12.33h-69.87z"/>
  <path fill="none" stroke="#263238" stroke-linecap="round" stroke-linejoin="round" d="M238.24 131.28h212.91M238.24 150.19h212.91"/>
  <path fill="#fff" stroke="#263238" stroke-linecap="round" stroke-linejoin="round" d="M238.24 190.04h212.91v60.01H238.24z"/>
  <path fill="none" stroke="#263238" stroke-linecap="round" stroke-linejoin="round" d="M238.24 209.77h212.91M238.24 228.68h212.91M241.71 116.37h25.89M373.75 116.37h25.89M241.71 102.33h25.89M382.36 102.33h25.89M241.71 135.08h25.89M241.71 155.66h25.89M321.67 155.66h25.88M317.5 100.15h51.77M317.5 105.45h51.77M312.28 166.85h11.74M326.95 166.85h11.74M341.62 166.85h11.74"/>
  <path fill="#fff" stroke="#263238" stroke-linecap="round" stroke-linejoin="round" d="M238.24 262.66h212.91v60.01H238.24z"/>
  <path fill="none" stroke="#aaa" stroke-linecap="round" stroke-linejoin="round" d="M242.91 278.1s4-9.9 1.58-7.53-4.36 10.7 1.58 8.72 9.9-10.7 8.32-7.13-.79 6.33 4 3.56 5.54-2.77 5.94-1.19 1.58 1.19 5.94-.39 4 1.19 4 2.37 5.55.8 7.53 0 3.56-3.16 4-.39 4.35 2.77 4.35 2.77h10.69"/>
  <path fill="none" stroke="#263238" stroke-linecap="round" stroke-linejoin="round" d="M238.24 282.39h212.91M238.24 301.3h212.91M241.71 267.48h25.89M373.75 267.48h25.89M241.71 286.19h25.89M241.71 306.77h25.89M321.67 306.77h25.88M312.28 317.96h11.74M326.95 317.96h11.74M341.62 317.96h11.74M243.33 196.19h60.88M243.33 215.99h37.41M337.95 215.99h37.41M396.64 240.94h37.41M388.57 215.99h37.41M381.23 236.53h8.8v8.8h-8.8zM335.75 240.94h37.41M320.35 236.53h8.8v8.8h-8.8zM274.87 240.94h37.41M259.46 236.53h8.8v8.8h-8.8zM425.65 334.09h24.53M328.29 334.09h94.2M267.6 334.09h57.85M239.66 334.09h25.72M396.57 339.78h53.61M294.15 339.78h99.89M239.66 339.78h51.33M410.48 345.47h39.7M325.13 345.47h83.14M276.45 345.47h44.25M239.66 345.47h33.94M432.29 351.16h17.89M253.05 351.16h176.08M239.66 351.16h10.87M436.4 356.85h13.78M392.46 356.85h41.1M325.13 356.85h65.12M262.22 356.85h60.38M239.66 356.85h19.08M425.34 362.54h24.84M345.68 362.54h76.18M294.15 362.54h47.42M239.66 362.54h51.33M388.98 368.24h61.2M267.6 368.24h116.96M239.66 368.24h24.46M241.86 385.44h26.41M372.43 385.44h26.41M274.87 385.44h88.76M406.17 385.44h43.28"/>
  <path fill="none" stroke="#aaa" stroke-linecap="round" stroke-linejoin="round" d="M245.16 207.31s4.08.94 5-3.77-2.83-2.2-2.83.31 1.26 5 6 1.26 3.45-3.14 6.28-.32.31 3.46 6 1.26 6-1.26 5.65.63-1.57.94 3.77-.94 7.85-3.46 7.22-1-2.83 3.14 1.25.32 6.6-11.93 3.14-5-4.71 6 .32 5 6.59-4.4 6.59-1.89-4.08 4.09 0 2.52 5.65-3.14 5.65-1.57-3.77 4.39 1.57 1.88 6.91-5.34 6.91-3.14-.95 1.57 0 2.2-.95-1.26 1.88-.32 1.57 2.83 5.65 1.26 3.77-3.77 6-1.57 0 5.34 6 2.51 7.53-1.25 9.42-.94a27.41 27.41 0 0 0 4.71.31c1.25 0 .94-1.25 4.08 0a12.49 12.49 0 0 0 6 1.26H355M374.18 207.62a43.47 43.47 0 0 0 4.39-2.2c2.83-1.57 10.05-6.9 10.36-3.45s-7.85 7.85-6.9 4.08 6.59-1.88 10.67-.31 5-.32 10.05-.32 4.39 1.57 6.9 2.2 1.57 0 6-1.88 1.25-11-1.57-4.71-3.77 8.79 2.82 5.65 4.71.63 5.65.63-.63.31 3.14-1.26-.94.63 1.89 1.26 4.39-2.52 6.9-3.46 2.83 1.89 2.83 1.89h2.51M243.27 147s1.57-.63 4.08-4.39-1.57-5-2.51-.94-3.14 8.79 3.77 5.33 4.39-10 2.2-5-1.57 10.05 5 6.28 7.22-6 8.16-4.08-2.51 2.51 3.14 2.82 6.59-1.57 9.1-2.51 3.77 0 3.77 0a7.52 7.52 0 0 0 2.2.32c1.25 0 2.82-1 3.45 0s-6.28 2.19 1.89.94 10-6.6 10.67-2.51-5.65 7.53-5.65 3.76 3.77-7.53 9.73-4.08 5.65 4.4 8.79 5 8.16-2.82 8.16-2.82-.31.31 1.57 1.25 1.26.95 4.71 0 .63-.31 5.34-.94 6.9-.31 5 1.26-7.22-.63-.31-1.88 7.84.94 7.84 1.88 1.89 1.25 3.46.63a23.43 23.43 0 0 1 4.71-.95M251.43 128.51a48.59 48.59 0 0 0 7.44-1.85c2.07-.73 4-1.69 4.81-2.86 2.19-3.14-4.4-2.2-8.48 1.89s2.51 4.39 11 1.57 8.16-10.05 2.51-4.71-3.45 6.59 5.34 4.71 19.77-4.09 16.32-1-4.39 1.57 1.57.32 9.73-4.08 8.79-1.89-3.45 5 1.26 2.83 4.08 0 4.08 0c8.47-.94 13.18-11.62 7.22-7.85s-6 8.79-.63 8.48 10.36-5.34 7.85-2.83-6.59 4.4 2.19 2.2 11.62-6.91 11-3.77-.94 2.83 2.2 2.83 8.79-4.4 6.91-1.26-2.83 3.45 0 2.83 6.9-2.83 8.16-2.83-2.51 3.45 1.25 3.14 11.62-5 11.62-5"/>
  <path fill="none" stroke="#aaa" stroke-linecap="round" stroke-linejoin="round" d="M355 123.49s7.85 5.33 9.73 5.33M322.48 238.78l.93 4.36 9.65-11.51"/>
  <path fill="#fff" stroke="#263238" stroke-linecap="round" stroke-linejoin="round" d="m215.77 428.7 7.86 7.66s17.94 6.65 18.75 7.86 0 4.64 0 4.64h-41.32l1.09-16.46Z"/>
  <path fill="#fff" stroke="#263238" stroke-linecap="round" stroke-linejoin="round" d="M242.73 446.24h-41.49l-.18 2.62h41.32a15.43 15.43 0 0 0 .35-2.62Z"/>
  <path fill="#263238" stroke="#263238" stroke-linecap="round" stroke-linejoin="round" d="m130.87 297.21 5.67 67S132 404.56 132 408.56s-2 17-2 17l13.67 1.67 18.23-69 2.67-28 22.33 50.33 15.28 51.86 13.62-3.7-10.56-66.49-19.59-62.67-1.41-7.33-53.34.66Z"/>
  <path fill="#fff" stroke="#263238" stroke-linecap="round" stroke-linejoin="round" d="m130 425.56-4 10.92s-7.45 8.66-6.85 10.28a3.34 3.34 0 0 0 2 2h18.54a2.38 2.38 0 0 0 1.81-2 25.51 25.51 0 0 0 .4-4.44l1.75-15.09Z"/>
  <path fill="#fff" stroke="#263238" stroke-linecap="round" stroke-linejoin="round" d="M141.49 446.76q.09-.39.15-.81h-22.43a1.36 1.36 0 0 0-.09.81 3.34 3.34 0 0 0 2 2h18.54a2.38 2.38 0 0 0 1.83-2Z"/>
  <path fill="#aaa" stroke="#263238" stroke-linecap="round" stroke-linejoin="round" d="M149.87 201.29s-17.5 1-22.75 4.5-30.75 24.5-30.75 24.5l1.31 21.84 28.19-20.34 4 70.5 55.75-2.75-1.25-39.25-.75-1.25s18 18.5 24.75 18 8.25-11.75 3.25-18.75-12.5-17-17.75-24.5-5.25-18.5-13-23.75-21.25-8.25-21.25-8.25Z"/>
  <path fill="#fff" stroke="#263238" stroke-linecap="round" stroke-linejoin="round" d="m184.37 260.29-1.09-22.57M186.85 246.71l.64-3.87M184.78 259.11l1.61-9.62M161.49 273.53l2.51 2.74M134.49 244.05l25.42 27.75M143.62 262.11l9.84 9.65M138.7 257.3l2.83 2.77"/>
  <path fill="none" stroke="#263238" stroke-linecap="round" stroke-linejoin="round" d="m134.19 226.28-8.32 5.51 8.02-.69"/>
  <path fill="#b0b0b0" stroke="#263238" stroke-linecap="round" stroke-linejoin="round" d="M148.14 180.9a87.73 87.73 0 0 1 .9 11.52 82.29 82.29 0 0 1-.9 11.29s11.29 17.17 13.32 18.52 3.39-4.52 3.39-7 .23-9.71.23-9.71v-8.13Z"/>
  <path fill="#263238" stroke="#263238" stroke-linecap="round" stroke-linejoin="round" d="M165 206.63v-9.24l-3.84-3.73-9.37-3.79Z"/>
  <path fill="#b0b0b0" stroke="#263238" stroke-linecap="round" stroke-linejoin="round" d="M175.69 158.31s2.71 8.81 2.94 12.42-1.81 6.33-1.81 7.46 3.16 5.64 3.16 7.23-3.84 3.61-3.84 3.61-1.58 8.36-5.64 11.07-13.33-3.84-16.94-7.23a21.74 21.74 0 0 1-6.33-10.16c-1.13-3.62.23-12 2.49-18.75a15.36 15.36 0 0 1 12.42-10.84c5.19-.91 12.86 2.03 13.55 5.19Z"/>
  <path fill="#263238" d="M172.3 179.66c0 1.06-.35 1.92-.79 1.92s-.79-.86-.79-1.92.36-1.92.79-1.92.79.86.79 1.92Z"/>
  <path fill="none" stroke="#263238" stroke-linecap="round" stroke-linejoin="round" d="M170 175.7s3.17-1.58 5 .46M171.85 192.42s-4.74-1.58-5-5"/>
  <path fill="#263238" stroke="#263238" stroke-linecap="round" stroke-linejoin="round" d="M149 180.07s4.29.68 4.74-1.58-2.26-2.71.68-4.74 5-2 5.87-3.39-.36-3.54 1.22-7.15 3.48-2.68 8-2a20.45 20.45 0 0 1 7.49 2.6s2.78-5.88-.16-9.27-12.27-6.83-22.66-3.67-13.54 10.68-14.44 18.81 2.26 12.65 5.26 13.55 4-3.16 4-3.16Z"/>
  <path fill="#b0b0b0" stroke="#263238" stroke-linecap="round" stroke-linejoin="round" d="M151.3 179.54s-2.71-8.35-5-4.06-1.13 7.9 1.13 9.26a2.07 2.07 0 0 0 3.16-1.13M201.22 265.08c2.88-5.29 15.63-20.86 15.63-20.86l8.31 4s-6.29 22.92-9.31 26.19-6.34 4.38-9.87 1.86"/>
  <path fill="#aaa" stroke="#263238" stroke-linecap="round" stroke-linejoin="round" d="M206.16 276.12a7.9 7.9 0 0 0 9.87-1.86c.91-1 2.12-3.77 3.36-7.16a13 13 0 0 1-14.6-7.32 34.69 34.69 0 0 0-3.87 6.17c-.1.31.73 4.14.68 4.42"/>
  <path fill="#fff" stroke="#263238" stroke-linecap="round" stroke-linejoin="round" d="M300.72 279.21a1.44 1.44 0 0 1-.57-.11l-10.67-4.43a1.5 1.5 0 1 1 1.15-2.77l10.67 4.43a1.5 1.5 0 0 1-.58 2.88ZM267.41 271.45 30.25 165a7.51 7.51 0 0 1-3.77-9.92h0a7.5 7.5 0 0 1 9.91-3.77l237.16 106.45Z"/>
  <path fill="#fff" stroke="#263238" stroke-linecap="round" stroke-linejoin="round" d="m62.44 163-26-11.69A7.5 7.5 0 0 0 30.25 165l25.4 11.48ZM273.55 257.76l23.74 16.26-1.48 3.16-28.4-5.73 6.14-13.69z"/>
  <path fill="#aaa" stroke="#263238" stroke-linecap="round" stroke-linejoin="round" d="m56.14 160.19-19.75-8.86A7.5 7.5 0 0 0 30.25 165l18.92 8.49Z"/>
  <path fill="#b0b0b0" stroke="#263238" stroke-linecap="round" stroke-linejoin="round" d="M80.12 175.79s-2 10.75-.5 12.75 9.75 9.5 9.75 9.5-3.25 43.75-2.5 47.75 9.25 7 12 6.25 4.75-3.75 7.25-9.25-8.75-44-8.75-45.75-5.25-15.25-5.25-15.25 4.25-3 5-4-3-.25-3.75-.25a41.65 41.65 0 0 1-7.25-1.5c-1-.5-6-.25-6-.25Z"/>
  <path fill="#fff" stroke="#263238" stroke-linecap="round" stroke-linejoin="round" d="M92.22 177.48s-3.54.89-3.41 1.77.13 6.45.13 6.45M86.79 176.6s-3-.13-3 1.52v6.95M80.08 176.47l.51 8.6"/>
  <path fill="#aaa" stroke="#263238" stroke-linecap="round" stroke-linejoin="round" d="M98.87 252c2.75-.75 4.75-3.75 7.25-9.25.95-2.07-.07-8.84-1.69-16.56a18.75 18.75 0 0 1-17.05 2c-.49 8.59-.8 16.06-.51 17.61.75 3.99 9.25 6.99 12 6.2Z"/>
  <path fill="#b0b0b0" stroke="#263238" stroke-linecap="round" stroke-linejoin="round" d="M216.76 232.24a5.53 5.53 0 0 1 3.71-1.3c2 .19 2.41 3.16 2.22 5.75s-3 3.16-3.34 1.49-.74-4.27-.74-4.27Z"/>
  <path fill="#b0b0b0" stroke="#263238" stroke-linecap="round" stroke-linejoin="round" d="M222.32 232.06a2.94 2.94 0 0 1 3.53 1.67c1.11 2.41-.19 5.56-1.49 5.75s-1.67-2.79-1.67-2.79Z"/>
  <path fill="#b0b0b0" stroke="#263238" stroke-linecap="round" stroke-linejoin="round" d="M225.85 233.73a1.8 1.8 0 0 1 2.59 1.29c.75 2.23 1.49 5-.18 5s-2.23-3-2.23-3Z"/>
  <path fill="#b0b0b0" stroke="#263238" stroke-linecap="round" stroke-linejoin="round" d="M228.44 235s2.42-.18 3 1.3 1.67 4.27-.37 4.27c-.55 0-1.85-2.6-1.85-2.6Z"/>
</svg>
